<?xml version="1.0" encoding="UTF-8" standalone="no"?>
<svg
   xmlns:dc="http://purl.org/dc/elements/1.1/"
   xmlns:cc="http://creativecommons.org/ns#"
   xmlns:rdf="http://www.w3.org/1999/02/22-rdf-syntax-ns#"
   xmlns:svg="http://www.w3.org/2000/svg"
   xmlns="http://www.w3.org/2000/svg"
   xmlns:sodipodi="http://sodipodi.sourceforge.net/DTD/sodipodi-0.dtd"
   xmlns:inkscape="http://www.inkscape.org/namespaces/inkscape"
   version="1.1"
   x="0"
   y="0"
   width="600"
   height="600"
   viewBox="0 0 600 600"
   id="svg27697"
   sodipodi:docname="strong-arms-clipart-publicdomainvectors.org.svg"
   inkscape:version="0.92.4 (5da689c313, 2019-01-14)">
  <metadata
     id="metadata27703">
    <rdf:RDF>
      <cc:Work
         rdf:about="">
        <dc:format>image/svg+xml</dc:format>
        <dc:type
           rdf:resource="http://purl.org/dc/dcmitype/StillImage" />
        <dc:title></dc:title>
      </cc:Work>
    </rdf:RDF>
  </metadata>
  <defs
     id="defs27701">
    <clipPath
       id="Clip_1">
      <path
         inkscape:connector-curvature="0"
         d="M 0.06,0.91 H 878.64 V 1131 H 0.06 Z"
         id="path21650" />
    </clipPath>
    <clipPath
       id="Clip_2">
      <path
         inkscape:connector-curvature="0"
         d="M 0.06,0.91 H 878.64 V 1131 H 0.06 Z"
         id="path21653" />
    </clipPath>
  </defs>
  <sodipodi:namedview
     pagecolor="#ffffff"
     bordercolor="#666666"
     borderopacity="1"
     objecttolerance="10"
     gridtolerance="10"
     guidetolerance="10"
     inkscape:pageopacity="0"
     inkscape:pageshadow="2"
     inkscape:window-width="1902"
     inkscape:window-height="994"
     id="namedview27699"
     showgrid="false"
     inkscape:pagecheckerboard="true"
     fit-margin-top="0"
     fit-margin-left="0"
     fit-margin-right="0"
     fit-margin-bottom="0"
     inkscape:zoom="1.1416828"
     inkscape:cx="308.702"
     inkscape:cy="105.69058"
     inkscape:window-x="0"
     inkscape:window-y="23"
     inkscape:window-maximized="0"
     inkscape:current-layer="svg27697" />
  <g
     id="Layer_1"
     transform="translate(0,-2.0263877)">
    <path
       d="m 286.004,207.991 c 0,-7.126 -14.47,-36.059 -40.8,-49.58 -24.161,-12.407 -56.27,-20.058 -111.871,14.124 0.332,-4.678 0.521,-10.349 0.723,-17.068 0.252,-8.515 0.516,-17.319 1.328,-23.01 1.166,-8.165 10.731,-22.996 18.418,-34.911 3.264,-5.061 6.218,-9.642 8.456,-13.538 10.575,3.238 20.51,-0.984 26.795,-3.657 0.446,-0.189 0.939,-0.399 1.433,-0.603 2.189,5.514 7.426,9.705 15.146,12.015 8.658,2.592 20.212,2.468 27.168,-1.128 2.509,1.039 5.22,1.396 7.039,1.513 2.036,0.131 8.39,0.256 13.053,-2.716 5.51,-0.448 10.306,-2.793 13.072,-6.462 1.099,-1.457 1.82,-3.069 2.135,-4.719 3.707,-1.503 9.14,-3.782 11.007,-8.635 l 0.711,-1.936 -0.672,-1.91 c -0.133,-0.377 -0.608,-2.041 -1.068,-3.65 C 265.23,17.211 255.849,0.407 244.595,2.148 241.698,2.598 232.829,2.463 223.439,2.318 190.604,1.813 160.106,1.975 147.735,9.398 141.145,13.352 121.672,35.239 90.447,70.626 62.792,101.965 31.448,137.487 21.353,144.6 1.791,158.381 2.314,182.332 2.821,205.494 c 0.082,3.771 0.167,7.67 0.158,11.421 -0.007,2.928 -0.692,6.019 -1.418,9.292 C 0.792,229.666 0,233.245 0,236.867 c 0,10.686 20.529,24.933 49.984,34.722 52.791,29.135 93.836,31.971 141.317,31.971 1.089,0 2.183,-10e-4 3.278,-0.003 30.789,-0.077 78.214,-21.955 84.028,-25.587 3.277,-2.048 7.767,-4.854 7.403,-68.676 l -0.006,-1.303"
       id="path27694"
       style="fill:#000000"
       inkscape:connector-curvature="0" />
    <path
       d="m 224.604,20.333 c -1.777,-0.203 -3.553,-0.463 -5.329,-0.884 1.776,-0.421 3.552,-0.681 5.329,-0.884 1.695,-0.181 3.391,-0.323 5.086,-0.393 1.45,-0.461 2.859,-0.875 4.426,-1.179 0.202,-0.038 0.422,-0.072 0.671,-0.101 l 0.232,-0.016 0.12,-0.006 c 0.103,0.002 0.209,0.01 0.312,0.028 0.205,0.023 0.404,0.097 0.607,0.238 0.189,0.116 0.412,0.345 0.403,0.354 l 0.261,0.341 0.183,0.289 c 0.13,0.195 0.219,0.376 0.325,0.565 0.39,0.748 0.714,1.499 0.963,2.281 0.262,0.776 0.443,1.577 0.559,2.388 0.121,0.811 0.186,1.635 0.106,2.461 -0.095,1.633 -0.639,3.296 -1.707,4.463 0.406,-1.524 0.369,-2.985 0.118,-4.387 -0.279,-1.398 -0.725,-2.753 -1.346,-4.037 -0.298,-0.643 -0.635,-1.271 -0.991,-1.852 -0.072,-0.112 -0.143,-0.23 -0.216,-0.335 l -0.091,0.016 c -1.384,0.293 -2.887,0.674 -4.342,1.01 l -0.231,0.053 -0.121,-0.005 c -1.776,-0.067 -3.551,-0.218 -5.327,-0.408"
       id="path27729"
       inkscape:connector-curvature="0"
       style="fill:#f8d2b5;fill-opacity:1" />
    <path
       d="m 215.197,24.796 c -1.776,-0.205 -3.552,-0.465 -5.328,-0.885 1.776,-0.421 3.552,-0.682 5.328,-0.885 1.696,-0.181 3.392,-0.323 5.087,-0.393 1.448,-0.461 2.858,-0.876 4.425,-1.178 0.203,-0.038 0.422,-0.073 0.671,-0.102 l 0.233,-0.017 0.121,-0.005 c 0.101,0.002 0.205,0.012 0.31,0.028 0.205,0.023 0.405,0.098 0.606,0.238 0.19,0.115 0.413,0.346 0.404,0.354 l 0.26,0.341 0.185,0.289 c 0.129,0.195 0.218,0.377 0.325,0.565 0.39,0.75 0.714,1.5 0.964,2.281 0.26,0.775 0.442,1.576 0.559,2.389 0.119,0.812 0.184,1.634 0.105,2.46 -0.096,1.634 -0.639,3.296 -1.708,4.463 0.407,-1.523 0.369,-2.984 0.118,-4.385 -0.279,-1.4 -0.725,-2.755 -1.345,-4.039 -0.298,-0.643 -0.636,-1.269 -0.992,-1.852 -0.072,-0.112 -0.143,-0.231 -0.214,-0.335 l -0.093,0.016 c -1.384,0.293 -2.887,0.676 -4.342,1.01 l -0.23,0.053 -0.121,-0.004 c -1.776,-0.066 -3.552,-0.22 -5.328,-0.407"
       id="path27727"
       inkscape:connector-curvature="0"
       style="fill:#f8d2b5;fill-opacity:1" />
    <path
       d="m 176.555,240.816 0.066,0.059 -0.019,-0.007 -0.047,-0.052"
       id="path27725"
       inkscape:connector-curvature="0"
       style="fill:#f8d2b5;fill-opacity:1" />
    <path
       d="m 271.916,269.134 c -3.624,1.957 -14.827,7.124 -28.444,12.11 -1.741,-0.191 -3.48,-0.351 -5.193,-0.715 -2.067,-0.317 -4.083,-0.865 -6.106,-1.365 -1.989,-0.623 -3.99,-1.197 -5.917,-1.991 -3.875,-1.503 -7.631,-3.31 -11.164,-5.489 -7.094,-4.313 -13.46,-9.732 -19.134,-15.781 -2.842,-3.025 -5.514,-6.208 -8.084,-9.49 -0.632,-0.804 -1.25,-1.632 -1.871,-2.447 4.204,1.054 8.144,1.519 11.884,1.519 11.639,0 21.386,-4.414 31.444,-8.969 12.918,-5.852 26.256,-11.866 45.64,-9.956 -0.366,31.941 -2.338,40.508 -3.055,42.574"
       id="path27723"
       inkscape:connector-curvature="0"
       style="fill:#f8d2b5;fill-opacity:1" />
    <path
       d="m 199.614,292.333 0.057,-0.44 c -11.791,-1.303 -23.549,-2.898 -35.174,-5.118 -11.603,-2.244 -23.173,-4.989 -34.026,-9.512 -5.39,-2.29 -10.652,-5.001 -15.155,-8.693 -2.225,-1.817 -4.382,-3.963 -6.571,-5.957 l -6.543,-6.086 c -4.394,-4.022 -8.73,-8.154 -13.638,-11.627 -2.466,-1.696 -5.181,-3.148 -8.136,-3.781 -0.968,-0.209 -1.946,-0.323 -2.925,-0.382 12.788,-8.532 28.229,-27.994 39,-42.923 3.758,13.989 16.024,20.114 31.038,27.6 5.808,2.898 11.814,5.893 18.105,9.685 3.929,2.368 7.639,4.265 11.163,5.759 l -0.03,0.077 -0.158,-0.06 0.023,0.023 c 0.127,0.124 0.226,0.171 0.391,0.351 0.316,0.326 0.634,0.646 0.972,1.038 0.663,0.737 1.339,1.545 2.017,2.345 1.356,1.607 2.732,3.244 4.143,4.851 2.816,3.219 5.754,6.358 8.863,9.327 6.208,5.937 13.12,11.203 20.703,15.266 3.776,2.054 7.763,3.712 11.834,5.041 2.025,0.707 4.118,1.19 6.189,1.715 2.103,0.402 4.192,0.848 6.319,1.057 0.93,0.145 1.866,0.227 2.804,0.291 -13.351,4.753 -28.626,9.139 -41.265,10.153"
       id="path27721"
       inkscape:connector-curvature="0"
       style="fill:#f8d2b5;fill-opacity:1" />
    <path
       d="m 54.864,261.717 -0.453,-0.251 -0.491,-0.161 c -6.113,-2.015 -11.472,-4.109 -16.154,-6.191 9.297,-2.269 22.59,-6.071 34.866,-11.615 1.472,-0.665 3.001,-1.532 4.569,-2.56 1.063,0.089 2.116,0.249 3.15,0.514 2.868,0.735 5.451,2.246 7.813,4.006 4.693,3.6 8.857,7.877 13.085,12.059 l 6.301,6.331 3.156,3.166 c 1.026,1.062 2.141,2.097 3.275,3.128 4.578,4.054 9.92,7.063 15.373,9.634 10.982,5.079 22.626,8.306 34.291,11.032 2.245,0.52 4.497,0.996 6.75,1.47 -37.611,-1.169 -72.642,-6.798 -115.531,-30.562"
       id="path27719"
       inkscape:connector-curvature="0"
       style="fill:#f8d2b5;fill-opacity:1" />
    <path
       d="m 11,236.672 c 0.034,-2.376 0.649,-5.15 1.299,-8.084 0.073,-0.328 0.148,-0.665 0.221,-1.002 0.674,0.707 1.41,1.38 2.235,1.993 1.356,1.012 2.952,1.816 4.637,2.294 1.687,0.477 3.444,0.62 5.098,0.486 0.57,-0.042 1.123,-0.123 1.67,-0.22 -1.93,4.17 -4.083,9.924 -3.979,14.673 C 14.951,242.117 11.51,238.268 11,236.672"
       id="path27717"
       inkscape:connector-curvature="0"
       style="fill:#f8d2b5;fill-opacity:1" />
    <path
       d="m 70.369,238.485 c -15.088,6.815 -32.216,11 -40.53,12.794 -1.685,-0.89 -3.245,-1.766 -4.686,-2.624 -1.144,-4.667 2.001,-12.496 4.533,-17.506 0.542,-0.204 1.085,-0.404 1.594,-0.644 0.191,-0.089 0.299,-0.127 0.554,-0.261 0.224,-0.115 0.464,-0.236 0.649,-0.353 0.404,-0.239 0.747,-0.479 1.081,-0.719 1.296,-0.965 2.316,-1.941 3.309,-2.93 0.983,-0.99 1.904,-1.993 2.796,-3.005 1.783,-2.023 3.461,-4.08 5.1,-6.158 6.517,-8.319 12.51,-16.887 18.437,-25.505 4.744,-6.926 9.386,-13.909 13.996,-20.912 -0.717,2.417 -1.367,4.87 -1.791,7.402 -0.58,3.38 -0.595,6.953 0.202,10.324 0.774,3.38 2.188,6.504 3.724,9.499 0.762,1.508 1.601,2.964 2.425,4.429 0.758,1.458 1.524,2.893 2.001,4.465 1.034,3.103 1.35,6.436 1.091,9.73 -0.25,3.301 -1.04,6.557 -2.064,9.73 -0.518,1.581 -1.084,3.15 -1.659,4.716 -3.813,3.392 -7.467,6.041 -10.762,7.528"
       id="path27715"
       inkscape:connector-curvature="0"
       style="fill:#f8d2b5;fill-opacity:1" />
    <path
       d="m 27.689,153.591 c 11.15,-7.856 41.579,-42.339 71.007,-75.689 23.078,-26.152 49.234,-55.794 54.698,-59.072 10.706,-6.422 47.744,-5.855 69.876,-5.514 10.791,0.166 18.682,0.288 22.642,-0.244 l 0.069,0.038 -0.06,0.004 c -0.249,0.029 -0.469,0.064 -0.671,0.103 -1.568,0.301 -2.977,0.717 -4.426,1.177 -1.694,0.071 -3.39,0.213 -5.086,0.393 -1.777,0.204 -3.553,0.463 -5.328,0.885 1.775,0.421 3.551,0.681 5.328,0.884 1.777,0.19 3.552,0.342 5.327,0.408 l 0.121,0.004 0.231,-0.052 c 1.455,-0.335 2.959,-0.718 4.343,-1.011 l 0.091,-0.016 c 0.072,0.105 0.144,0.224 0.214,0.335 0.356,0.582 0.694,1.209 0.993,1.852 0.621,1.284 1.066,2.639 1.346,4.038 0.25,1.402 0.288,2.863 -0.12,4.386 1.07,-1.166 1.613,-2.828 1.709,-4.462 0.079,-0.825 0.014,-1.649 -0.106,-2.46 -0.117,-0.813 -0.299,-1.614 -0.559,-2.389 -0.085,-0.267 -0.19,-0.526 -0.292,-0.787 3.478,5.093 9.576,17.672 18.464,48.743 0.119,0.416 0.227,0.793 0.326,1.136 -1.251,0.719 -3.111,1.473 -4.067,1.86 -0.352,0.143 -0.758,0.309 -1.188,0.5 l -13.348,-36.824 9.112,39.701 c -1.001,1.196 -1.569,2.74 -1.103,4.765 -0.424,0.626 -2.268,2.053 -5.736,2.199 l -11.097,-45.576 6.355,47.408 c -2.003,1.154 -8.077,1.23 -10.026,0.042 l -3.954,-4.946 c -0.01,-0.27 -0.01,-0.543 -0.019,-0.812 -0.218,-5.625 -0.587,-11.21 -0.95,-16.8 l -0.551,-8.377 c -0.153,-2.793 -0.403,-5.585 -0.364,-8.38 -0.27,2.79 -0.249,5.597 -0.327,8.395 l -0.141,8.396 c -0.098,5.594 -0.19,11.193 -0.434,16.755 -0.063,1.389 -0.136,2.776 -0.242,4.145 l -0.015,0.147 -1.331,1.59 c -0.4,0.428 -1.404,0.878 -2.815,1.253 -1.096,0.142 -2.188,0.289 -3.267,0.457 -0.634,0.1 -1.26,0.219 -1.893,0.324 -3.629,0.227 -8.032,-0.081 -12.312,-1.489 -2.704,-0.89 -7.304,-2.942 -7.74,-6.69 -0.08,-0.684 -0.237,-1.277 -0.427,-1.822 0.402,-0.331 0.843,-0.645 1.317,-0.935 1.93,-1.2 4.234,-2.025 6.677,-2.767 0.63,-0.201 1.218,-0.359 1.991,-0.658 0.193,-0.08 0.426,-0.17 0.771,-0.395 0.214,-0.163 0.351,-0.315 0.462,-0.46 0.4,-0.09 0.8,-0.172 1.204,-0.235 0.67,-0.096 1.345,-0.158 2.016,-0.125 0.658,0.05 1.355,0.176 1.838,0.715 -0.28,-0.677 -1.001,-1.107 -1.679,-1.384 -0.694,-0.274 -1.421,-0.447 -2.15,-0.58 -0.236,-0.042 -0.474,-0.071 -0.711,-0.102 0.005,-0.119 0.008,-0.235 0.012,-0.351 -0.014,-1.489 -0.239,-2.764 -0.463,-4.074 -0.474,-2.591 -1.074,-5.107 -1.735,-7.625 l -0.139,-0.527 -0.468,0.027 -10.541,0.619 9.983,0.587 c 0.279,2.389 0.51,4.798 0.611,7.171 0.045,1.249 0.07,2.549 -0.077,3.635 l -0.033,0.189 c -0.197,0.044 -0.425,0.088 -0.673,0.13 l -0.203,-0.001 0.006,0.035 c -0.261,0.043 -0.53,0.087 -0.793,0.13 -2.566,0.414 -5.283,0.938 -7.943,2.107 -0.744,0.327 -1.484,0.719 -2.205,1.175 l -0.144,-0.092 c -3.617,-2.103 -7.374,-0.505 -12.128,1.517 -6.504,2.766 -14.599,6.208 -22.347,1.953 l -3.82,-2.098 c -0.052,-0.091 -0.109,-0.174 -0.159,-0.268 -1.23,-2.281 -1.716,-5.189 -1.798,-8.132 -0.044,-1.478 0.009,-2.981 0.095,-4.493 l 0.13,-2.281 c 0.021,-0.761 0.083,-1.548 -0.097,-2.295 0.006,0.76 -0.223,1.484 -0.412,2.213 l -0.637,2.188 c -0.427,1.465 -0.828,2.955 -1.134,4.488 -0.598,3.053 -0.901,6.35 -0.008,9.763 0.193,0.735 0.464,1.467 0.787,2.185 l -0.567,1.202 c -1.903,4.027 -5.945,10.294 -10.224,16.93 -8.698,13.485 -18.557,28.77 -20.063,39.317 -0.233,1.631 -0.423,3.452 -0.583,5.404 -1.727,3.774 -3.433,7.554 -5.111,11.352 -3.136,7.127 -6.213,14.281 -8.9,21.651 l -0.948,2.801 c -0.284,0.961 -0.561,1.917 -0.813,2.906 -0.517,2.166 -0.332,4.15 -0.257,6.108 0.238,3.904 0.534,7.724 0.377,11.562 -0.102,2.899 -0.461,5.799 -1.181,8.612 -7.817,10.409 -17.12,21.739 -25.659,29.402 0.584,-1.438 1.161,-2.883 1.697,-4.346 1.136,-3.151 2.049,-6.413 2.422,-9.777 0.378,-3.355 0.178,-6.817 -0.791,-10.1 l -0.389,-1.223 -0.196,-0.612 -0.267,-0.583 c -0.359,-0.774 -0.707,-1.572 -1.082,-2.325 -0.766,-1.478 -1.547,-2.95 -2.243,-4.454 -1.412,-2.993 -2.666,-6.067 -3.277,-9.243 -0.631,-3.174 -0.509,-6.416 0.146,-9.602 0.646,-3.191 1.7,-6.335 2.794,-9.469 0.782,-2.226 1.616,-4.446 2.454,-6.668 10.696,-16.418 21.197,-32.949 31.649,-49.504 l 16.689,-26.46 8.395,-13.195 4.26,-6.556 c 1.451,-2.164 2.86,-4.36 4.477,-6.404 -1.685,1.991 -3.169,4.143 -4.692,6.257 l -4.478,6.415 -8.829,12.913 -17.557,25.893 c -11.71,17.254 -23.464,34.476 -35.436,51.53 -5.99,8.523 -12.031,17.006 -18.19,25.387 -6.167,8.365 -12.419,16.691 -19.031,24.575 -1.657,1.962 -3.342,3.891 -5.067,5.723 -0.863,0.915 -1.738,1.805 -2.619,2.636 -0.877,0.823 -1.786,1.612 -2.607,2.175 -0.199,0.132 -0.396,0.26 -0.557,0.344 -0.092,0.056 -0.148,0.071 -0.214,0.105 -0.031,0.022 -0.229,0.097 -0.336,0.144 -0.513,0.221 -1.026,0.397 -1.534,0.562 -1.017,0.31 -2.02,0.511 -2.962,0.543 -1.896,0.076 -3.494,-0.441 -4.924,-1.579 -1.434,-1.127 -2.657,-2.882 -3.607,-4.886 -0.624,-1.32 -1.131,-2.749 -1.556,-4.227 -0.019,-3.158 -0.075,-6.334 -0.143,-9.433 -0.465,-21.215 -0.903,-41.255 13.87,-51.663"
       id="path27713"
       inkscape:connector-curvature="0"
       style="fill:#f8d2b5;fill-opacity:1" />
    <path
       d="m 240.178,168.196 c 14.168,7.275 23.968,19.467 29.492,28.612 -0.924,-0.747 -1.855,-1.486 -2.798,-2.204 -6.089,-4.631 -12.555,-8.708 -19.302,-12.253 -6.753,-3.528 -13.807,-6.498 -21.11,-8.705 -7.3,-2.188 -14.856,-3.639 -22.49,-3.953 -7.626,-0.344 -15.32,0.462 -22.653,2.558 -3.662,1.041 -7.24,2.394 -10.66,4.038 -3.403,1.561 -6.777,3.194 -10.205,4.697 -6.844,3.039 -13.784,5.873 -20.891,8.221 -1.781,0.568 -3.56,1.158 -5.376,1.604 -0.906,0.226 -1.802,0.512 -2.718,0.692 l -2.747,0.564 c -0.921,0.161 -1.85,0.256 -2.776,0.388 -0.928,0.099 -1.864,0.114 -2.796,0.139 l -0.315,-0.021 6.057,-4.084 c 57.293,-38.64 87.345,-32.588 111.288,-20.293"
       id="path27711"
       inkscape:connector-curvature="0"
       style="fill:#f8d2b5;fill-opacity:1" />
    <path
       d="m 122.623,192.716 0.52,0.051 c 0.938,0.003 1.886,0.016 2.822,-0.055 0.935,-0.104 1.877,-0.172 2.809,-0.305 l 2.782,-0.483 c 0.93,-0.154 1.834,-0.412 2.753,-0.613 1.843,-0.394 3.646,-0.929 5.454,-1.447 7.212,-2.14 14.269,-4.773 21.228,-7.613 3.488,-1.405 6.919,-2.937 10.382,-4.399 3.391,-1.505 6.898,-2.707 10.481,-3.609 7.163,-1.811 14.607,-2.363 21.955,-1.804 14.742,1.11 28.943,6.324 41.795,13.537 6.43,3.633 12.576,7.78 18.294,12.412 2.855,2.315 5.608,4.758 8.156,7.34 1.038,1.054 2.024,2.144 2.954,3.248 l 0.003,0.382 c 0.023,4.172 0.023,8.049 0.005,11.669 -20.623,-1.896 -35.078,4.645 -47.954,10.479 -17.377,7.87 -32.385,14.671 -58.577,-1.119 -6.478,-3.904 -12.86,-7.087 -18.489,-9.895 -15.21,-7.585 -26.481,-13.211 -28.755,-26.844 z"
       id="path27709"
       inkscape:connector-curvature="0"
       style="fill:#f8d2b5;fill-opacity:1" />
    <path
       d="m 109.946,181.071 c 0.026,-1.909 0.008,-3.856 0.525,-5.463 0.282,-0.875 0.598,-1.769 0.915,-2.652 l 1.078,-2.654 c 3.054,-7.053 6.529,-13.984 10.06,-20.871 0.251,-0.489 0.512,-0.974 0.764,-1.463 -0.085,2.372 -0.157,4.782 -0.228,7.171 -0.278,9.316 -0.698,23.394 -2.165,26.331 l -0.731,1.461 c -2.931,4.326 -6.987,10.159 -11.655,16.45 0.548,-2.164 0.912,-4.38 1.121,-6.602 0.394,-3.91 0.322,-7.861 0.316,-11.708"
       id="path27707"
       inkscape:connector-curvature="0"
       style="fill:#f8d2b5;fill-opacity:1" />
  </g>
</svg>
