<?xml version="1.0" encoding="utf-8"?>

<!DOCTYPE svg PUBLIC "-//W3C//DTD SVG 1.1//EN" "http://www.w3.org/Graphics/SVG/1.1/DTD/svg11.dtd">
<svg version="1.1" id="Layer_1" xmlns="http://www.w3.org/2000/svg" xmlns:xlink="http://www.w3.org/1999/xlink" x="0px" y="0px"
	 viewBox="0 0 929.222 1693.558" enable-background="new 0 0 929.222 1693.558" xml:space="preserve">
<g>
	<path d="M487.016,464.867c32.942-2.683,54.27-1.668,63.768-12.184c8.642-9.567,2.857-39.335-29.954-48.65
		c-12.014-3.411-29.172-1.727-38.555,3.784c-5.086,2.987-4.5,5.068-3.835,57.748L487.016,464.867L487.016,464.867z"/>
	<path d="M429.738,413.652c-28.693,4.621-56.623,44.56-36.242,58.047c13.583,8.989,37.049,2.335,55.184,8.951
		c4.162,1.518,8.272,2.974,9.135,3.236c1.311,0.397,1.8-1.569,2.975-11.949l0,0c2.714-23.976,1.468-40.512-3.652-48.485
		C452.12,415.638,441.342,411.783,429.738,413.652z"/>
	<path d="M481.494,539.574c2.797,2.796,33.56,5.105,42.522,3.191v0c55.343-11.821,37.602-107.968-46.098-53.192
		C477.969,490.449,480.747,538.828,481.494,539.574z"/>
	<path d="M428.133,489.648c-17.72-3.38-35.585,3.242-43.097,19.383c-10.891,23.402,8.144,60.771,55.864,49.226h0
		C474.484,550.132,474.919,498.571,428.133,489.648z"/>
	<path d="M332.348,495.531c5.173,6.812,5.617,6.21,5.171-7.004v0c-0.62-18.366-3.963-20.935-18.697-37.028
		c3.446-6.27,3.634-6.611,7.077-12.875c-3.702-26.662-4.421-29.445-0.733-59.592c0.63-5.15-0.103-3.04-7.133-7.998
		c-5.973-4.213-18.724-11.644-28.535-31.546c-7.068-14.34-13.471-13.559-33.005-14.152c-5.116,34.193-6.485,64.385,18.207,102.585
		C291.629,454.109,322.857,483.032,332.348,495.531z"/>
	<path d="M814.388,299.561c1.483-1.146,8.6-1.871,10.089-2.993c1.49-1.124,6.517-1.574,10.409-3.605
		c1.488-0.777,3.052-1.415,3.474-1.418c2.362-0.019,20.297-12.433,25.464-17.625c11.864-11.923,14.188-21.017,12.513-48.966
		c-3.636-60.665-22.938-75.76-50.346-84.669c-43.263-14.063-72.351-74.284-118.035-87.625c-7.904-2.308-35.59-2.209-47.92,0.172
		c-75.688,14.613-48.012,85.895-1.78,75.166c25.719-5.969,62.657-23.751,65.989-20.251c0.358,0.377,0.22,3.636-0.308,7.242
		c-1.274,8.708-0.564,12.528,3.107,16.709c5.781,6.584,17.041,34.26,16.049,39.446c-0.814,4.256-8.155-0.237-11.442,8.988
		c-9.975,27.999,37.824,40.11,32.296,88.707c-9.649-16.502-14.794-29.535-20.918-35.625c-8.496-8.449-30.556-20.367-42.757-20.367
		c-5.704,0-24.093,3.73-27.355,5.549c-0.108,0.06-12.348,48.136-13.25,49.128c-0.805,0.885-8.893-3.766-10.692-4.739
		c-0.033-10.728,0.455-11.348-3.727-17.781c-7.998-12.301-17.162-21.293-52.805-4.977c-24.73,11.32-41.312,9.838-45.022-16.679
		c-3.608-25.791,9.872-67.574,2.133-104.324c-14.109-66.997-70.38-83.387-107.457-65.529c-16.745,8.066-26.048,27.446-32.89,43.738
		c-7.996,19.038-11.771,39.822-13.089,60.351c-2.079,32.379,1.512,68.207,24.767,87.882c15.114,12.788,35.079,15.492,54.102,12.236
		c7.024-1.202,13.915-3.128,20.62-5.527c5.148-1.842,10.355-3.612,15.228-6.119c4.515-2.322,8.656-5.219,13.228-7.485
		c3.157-1.565,8.716-4.974,10.41-0.091c0.79,2.278,0.996,4.802,1.495,7.153c3.962,18.632,5.328,15.892-3.22,19.732
		c-32.943,14.799-46.846,13.114-52.874,47.356c-3.714,21.1-2.376,59.295,23.313,71.824c13.802,6.731,45.422,6.572,64.442-0.324
		c41.184-14.933,56.145-45.257,80.3-82.708c3.914,0.431,59.513,8.505,62.445,11.27c1.864,1.758,1.799,1.858-2.522,3.804
		c-13.855,6.24-16.329,5.492-53.196,4.482c-18.655,51.148-39.072,46.435-38.979,75.387c0.017,5.271,0.584,11.127,1.261,13.013
		c1.659,4.623,3.918,36.218-9.38,56.049c-3.231,4.818-1.343,29.352-0.738,29.957c0.419,0.419,2.187-0.465,3.929-1.965
		c36.021-31.023,71.556-54.305,83.843-72.842c17.516-26.426,7.312-54.052,12.979-78.186c9.055,17.054,20.142,33.802,21.418,33.82
		c6.678,0.096,32.677,3.981,48.438-2.062c26.347-10.102,59.311-63.038,61.645-67.469c1.251-2.374,1.211-2.406-2.12-1.695
		c-1.923,0.41-45.068,6.248-42.739,3.793C797.582,305.321,813.783,300.029,814.388,299.561z"/>
	<path d="M229.12,319.787c-1.689,0-6.119-4.035,24.852-6.037c24.994-1.616,21.625-5.063,36.082-22.659
		c2.386,11.777,3.341,17.716,9.84,30.346c20.59,40.012,95.506,72.721,127.095,64.997h0c25.157-6.151,31.96-35.101,32.169-61.098
		c0.503-62.477-50.839-55.503-118.668-93.353c-2.97-1.657-16.1-3.102-21.953-2.415c-15.81,1.853-22.175,11.154-28.246,24.971
		c-3.684,8.385-3.008,0.762-6.47,3.635c-2.72,2.257-9.627-9.372-11.64-19.599c-1.824-9.263-3.094-12.66-6.853-18.324
		c-8.918-13.441-39.752-12.989-56.95-3.684c-26.931,14.571-32.833,48.49-16.433,68.503c3.692,4.505,6.672,5.912,18.752,8.852
		c27.244,6.63-3.842,8.875-8.641,8.241c-17.242-2.276-30.269-17.983-32.657-39.376l-0.676-6.053
		c-5.035-0.54-11.393-1.292-23.094-2.069c-15.215-1.01-6.253-2.444-4.105-2.455c21.439-0.108,46.285-19.109,52.583-48.846
		c1.954-9.226,3.216-25.676,2.194-28.598c-0.928-2.653-5.888-3.29-5.888-0.757c0,1.898-2.051,1.945-4.568,0.104
		c-1.892-1.383-1.893-1.547-0.042-8.827c6.34-24.948,31.421-35.417,27.717-43.547c-1.395-3.062-0.391-9.65,1.586-10.408
		c0.758-0.291,6.294,1.052,12.303,2.985c46.537,14.966,65.087,11.13,79.851,9.414c4.326-27,17.541-60.26-26.018-68.862
		c-18.129-3.58-61.804,0.551-72.853,6.892c-7.369,4.229-16.543,12.061-32.604,27.833c-33.168,32.573-33.359,32.71-67.593,48.651
		c-17.808,8.292-31.589,20.296-38.383,33.432c-6.919,13.378-15.617,46.872-17.198,66.223c-5.852,71.612,112.269,42.612,74.245,60.97
		c-7.591,3.665-19.536,1.608-40.519,2.761c13.713,23.046,56.155,67.627,91.465,76.719c11.88,3.059,30.631,3.318,38.336,0.528
		c4.765-1.725,11.544-6.259,14.412-9.639c2.578-3.038,6.045-11.759,7.348-18.481C240.214,338.819,234.413,319.787,229.12,319.787z"
		/>
	<path d="M635.373,737.284c24.476,2.293,22.581,2.164,17.616-13.453c-12.81-40.291-29.19-33.954-34.748-68.097
		c-2.706-16.622-6.174-26.131-11.704-32.095c-1.372-1.479-2.494-3.035-2.494-3.456c0-1.479-4.091-0.745-8.972,1.61
		c-7.247,3.496-27.443,18.335-34.913,22.064c-6.261,3.126-15.571,6.227-16.351,5.446c-1.29-1.29,14.809-16.255,34.18-39.84
		c1.996-2.43,14.868-25.369,14.951-43.691c0.007-1.547-0.6-1.52-7.307,0.328c-12.559,3.461-25.212,13.979-29.903,13.966
		c-0.999-0.002-3.105-2.891-5.479-7.514c-8.144-15.865-15.644-18.794-38.78-15.144c-37.52,5.918-20.759,14.651-35.479,29.15
		l-4.98,4.905c-3.268-1.538-6.599-2.522-14.941-10.861c-7.461-7.459-12.841-15.961-63.488-7.095
		c-3.007,0.526-3.181,0.833-4.288,7.534c-3.635,22.012,4.997,26.349-21.761,8.652c-10.502-6.945-19.27-12.452-19.485-12.237
		c-0.408,0.408,4.838,11.302,8.787,18.247c14.33,25.199,40.77,41.522,55.425,51.456l-3.232,0.867
		c-5.184,1.391-18.947,0.143-24.24-2.198c-13.346-5.903-41.919-51.628-41.919-51.628c-1.323,0.014-18.156,24.768-22.832,48.418
		c-8.824,44.623-40.059,63.256-46.493,105.425c-3.357,22.002,1.754,49.745,2.167,50.88c0.367,1.009,2.65-0.661,7.548-5.522
		c7.436-7.379,8.056-7.27,5.955,1.048c-6.665,26.39-10.735,75.533,5.324,97.858c8.683,12.072,20.644,25.892,35.13,29.275
		c2.493,0.582,2.604,0.382,4.023-7.276c2.122-11.45,1.947-31.562-0.34-39.149c-2.861-9.49-1.923-4.417-6.25-18.052
		c-2.783-8.768-2.804-9.005-0.917-10.386c1.909-1.397,8.806-2.132,9.315,1.451c0.538,3.786,2.044,2.626,7.207-5.549
		c4.651-7.365,8.632-13.68,12.032-19.07c1.716,5.366,3.626,10.692,5.705,15.983c-16.304,68.612-9.229,128.819,60.951,109.59
		c1.306-0.358,2.421-0.636,3.383-0.899c5.88,7.96,11.873,15.872,17.904,23.746c9.046-11.767,18.303-23.665,27.316-35.474
		c-12.625-16.645-24.694-33.129-35.514-49.579c-1.814-16.083-6.029-32.076-10.298-56.151c3.364,2.886,10.38,8.419,15.452,18.563
		c4.582,9.165,10.035,18.26,10.949,18.26c0.604,0,15.375-20.025,15.646-80.204c0.089-19.847,1.541-22.807-12.425-37.355
		c-11.197-11.663-15.539-23.701-14.935-24.305c0.333-0.333,5.511,0.239,11.508,1.271c6.404,1.101,15.692,1.868,22.505,1.857
		c10.508-0.017,16.071,0.878,30.77-13.186c7.367-7.049,17.421-14.747,21.108-16.162c3.267-1.254-2.32,9.802-3.929,14.234
		c-11.688,32.175-37.467,35.289-43.383,55.21c-8.185,27.56,15.392,128.014,15.996,128.618c3.744,3.744,12.033-25.674,20.998-37.544
		c3.525-4.667,13.254-15.637,13.58-15.311c0.393,0.393-2.809,13.137-6.254,24.895c-1.581,5.396-2.919,10.452-4.03,15.261
		c-63.13,96.936-169.704,192.917-169.846,308.15c0.201,163.566,215.12,288.478,215.297,432.343
		c0.034,28.659,43.269,28.465,43.234-0.052c-0.202-163.547-215.119-288.517-215.297-432.291
		c0.104-84.358,74.038-162.196,135.225-245.131c7.394,3.38,17.506,6.465,27.619,6.455c8.337-0.008,9.692-0.29,14.393-2.986v0
		c14.004-8.032,22.216-33.927,24.522-45.429c1.801-8.982,1.89-9.006,10.269-2.75c13.004,9.708,21.749,12.868,30.445,10.998
		c13.125-2.822,12.468-1.455,16.126-8.666c14.553-28.689,16.18-69.023,10.927-98.411
		C653.843,774.583,647.761,763.227,635.373,737.284z"/>
	<path d="M441.681,1414.014c-50.362,65.751-98.151,134.109-98.246,211.297c-0.035,28.562,43.199,28.656,43.234,0.052
		c0.074-60.336,37.75-117.1,82.328-175.875C459.976,1437.67,450.716,1425.767,441.681,1414.014z"/>
	<path d="M507.166,986.18c-9.125,11.84-18.332,23.69-27.314,35.524c105.165,139.602,105.183,202.951,0,342.579
		c8.967,11.813,18.095,23.562,27.315,35.524C633.605,1233.962,633.961,1152.494,507.166,986.18z"/>
	<path d="M462.517,1045.019c-2.09,2.886-4.152,5.768-6.184,8.647h36.227c-2.052-2.904-4.119-5.787-6.194-8.647H462.517z"/>
	<path d="M438.987,1079.526h70.918c-1.827-2.9-3.689-5.782-5.576-8.647h-59.76C442.668,1073.763,440.806,1076.645,438.987,1079.526z
		"/>
	<path d="M423.917,1105.385h101.001c-1.526-2.895-3.102-5.778-4.721-8.647H428.66
		C427.027,1099.62,425.443,1102.503,423.917,1105.385z"/>
	<path d="M411.825,1131.244h125.139c-1.158-2.892-2.382-5.774-3.661-8.647H415.498
		C414.21,1125.478,412.982,1128.36,411.825,1131.244z"/>
	<path d="M403.374,1157.103h142.05c-0.723-2.889-1.524-5.771-2.396-8.647H405.76
		C404.889,1151.335,404.092,1154.217,403.374,1157.103z"/>
	<path d="M399.159,1182.962h150.532c-0.218-2.886-0.524-5.769-0.918-8.647H400.065
		C399.678,1177.193,399.373,1180.075,399.159,1182.962z"/>
	<path d="M399.701,1208.821h149.427c0.338-2.878,0.586-5.761,0.745-8.647H398.975
		C399.129,1203.061,399.37,1205.944,399.701,1208.821z"/>
	<path d="M543.859,1234.68c0.822-2.876,1.573-5.758,2.244-8.647h-143.42c0.664,2.885,1.407,5.768,2.227,8.647H543.859z"/>
	<path d="M534.544,1260.539c1.237-2.873,2.416-5.755,3.529-8.647h-127.38c1.112,2.884,2.295,5.766,3.54,8.647H534.544z"/>
	<path d="M521.785,1286.399c1.584-2.869,3.122-5.752,4.611-8.647h-103.98c1.49,2.882,3.039,5.764,4.639,8.647H521.785z"/>
	<path d="M506.192,1312.258c1.861-2.866,3.694-5.748,5.49-8.647h-74.487c1.791,2.88,3.627,5.763,5.504,8.647H506.192z"/>
	<path d="M488.426,1338.117c2.059-2.86,4.107-5.743,6.138-8.647h-40.236c2.012,2.879,4.057,5.761,6.13,8.647H488.426z"/>
	<path d="M453.813,1484.625c-2.041,2.873-4.058,5.756-6.049,8.647h53.281c-1.98-2.879-3.995-5.761-6.04-8.647H453.813z"/>
	<path d="M436.345,1510.484c-1.828,2.874-3.617,5.756-5.366,8.647h86.844c-1.745-2.881-3.536-5.763-5.37-8.647H436.345z"/>
	<path d="M421.156,1536.343c-1.536,2.875-3.019,5.757-4.448,8.647h115.417c-1.43-2.882-2.918-5.765-4.462-8.647H421.156z"/>
	<path d="M408.928,1562.202c-1.172,2.876-2.283,5.758-3.323,8.647h137.652c-1.04-2.884-2.148-5.766-3.326-8.647H408.928z"/>
	<path d="M398.298,1596.708h152.28c-0.582-2.886-1.243-5.768-1.983-8.647h-148.31
		C399.544,1590.938,398.881,1593.82,398.298,1596.708z"/>
	<path d="M395.815,1613.921c-0.243,2.877-0.402,5.759-0.466,8.647H553.51c-0.063-2.887-0.221-5.769-0.463-8.647H395.815z"/>
</g>
</svg>
