<?xml version="1.0" encoding="utf-8"?>

<!DOCTYPE svg PUBLIC "-//W3C//DTD SVG 1.1//EN" "http://www.w3.org/Graphics/SVG/1.1/DTD/svg11.dtd">
<svg version="1.1" id="Layer_1" xmlns="http://www.w3.org/2000/svg" xmlns:xlink="http://www.w3.org/1999/xlink" x="0px" y="0px"
	 viewBox="0 0 3000.598 3000.556" enable-background="new 0 0 1208.598 1736.556" xml:space="preserve">
<g>
	<path d="M1104.872,1668.278c1.485-13.885-70.069-155.185-91.056-206.84c-12.159-29.927-70.38-3.741-126.043,15.421
		c-42.877,14.761-111.437,26.14-219.47,20.436c-89.794-4.741-228.48-55.775-283.716-70.129
		c-148.563-38.605-220.135-51.976-285.025-139.161c-26.292-35.325-56.628-48.384-42.973-100.039
		c4.966-18.785,6.883-21.436,5.23-31.77c-9.581-59.89,12.168-168.232,29.721-226.403c44.388-147.102,50.617-112.484,85.187-214.476
		c28.769-84.879,101.98-239.797,109.179-338.107c4.348-59.377,28.069-54.655,47.324-106.141
		c7.327-19.591,25.339-34.288,42.617-45.924c38.643-26.026,60.748-56.891,124.873-78.341c1-0.335,79.554-35.593,103.695-51.361
		c8.955-5.849,18.637-10.116,28.818-13.306c11.448-0.061,48.821-36.459,92.164,8.536c44.669,46.372,110.983,93.537,120.507,110.782
		c12.319,22.307-2.556,30.75,3.766,37.668c16.621,18.188,32.592,25.643,27.259,56.439c-3.427,19.786-31.704,31.438-53.444,27.833
		c-24.697-4.095-30.448-4.303-41.876-11.489c-4.917-3.092-5.755,0.144-10.641,2.33c-9.367,4.191-3.216,8.716-14.07,18.515
		c-21.933,19.801-28.798,12.743-53.074,22.166c-9.302,3.611-18.865,6.4-28.756,7.888c-3.274,0.493-7.033-0.167-9.77,1.248
		c-4.773,2.469-8.895,16.419-26.847,15.533c-10.453-0.516-14.944,1.258-26.808-7.412c-8.49-6.205-8.948-7.604-12.308-6.584
		c-9.285,2.819-16.041,0.824-23.77,5.323c-12.744,7.419-16.885-4.701-24.559,0.908c-3.665,2.679-5.036,1.452-17.414,0.461
		c-1.579-0.126-3.062,0.197-6.966,6.451c-3.356,5.378-7.445,19.262-26.369,29.792c-66.553,37.034-25.867-16.172-66.764,72.621
		c-1.931,4.193-3.141,6.296-9.881,29.505c-25.374,87.364-17.045,50.358-18.179,130.333c-1.015,71.576,0.164,47.199,12.32,136.557
		c1.67,12.275,13.332,84.233,13.277,111.934c-0.083,41.907,14.117,90.568,10.984,141.983c-1.971,32.351,2.218,32.352,6.975,32.59
		c2.554,0.128,21.47,7.392,67.871,3.921c51.497-3.852,34.588-30.291,155.18-19.207c28.001,2.574,77.799,11.621,113.01,6.946
		c22.718-3.016,156.664-65.574,227.069-66.034c0.883-0.006,1.807,0.036,2.641-0.196c5.81-1.615,11.791-1.81,17.744-2.244
		c40.912-2.985,32.445-3.789,105.072,2.786c1.102,0.1,2.222,0.162,3.322,0.082c4.901-0.356,9.725,0.173,14.52,1.124
		c0,225.684,0,451.368,0,677.052C1138.57,1668.278,1121.721,1668.278,1104.872,1668.278z"/>
</g>
</svg>
