<?xml version="1.0" encoding="UTF-8"?>
<!DOCTYPE svg PUBLIC "-//W3C//DTD SVG 1.1//EN" "http://www.w3.org/Graphics/SVG/1.1/DTD/svg11.dtd">
<!-- Creator: CorelDRAW -->
<svg xmlns="http://www.w3.org/2000/svg" xml:space="preserve" width="20in" height="20in" style="shape-rendering:geometricPrecision; text-rendering:geometricPrecision; image-rendering:optimizeQuality; fill-rule:evenodd; clip-rule:evenodd"
viewBox="0 0 20 20"
 xmlns:xlink="http://www.w3.org/1999/xlink">
 <defs>
  <style type="text/css">
   <![CDATA[
    .fil0 {fill:black}
   ]]>
  </style>
 </defs>
 <g id="Layer_x0020_1">
  <metadata id="CorelCorpID_0Corel-Layer"/>
  <path class="fil0" d="M5.10854 0.649945c-0.199413,-0.0296535 -0.426264,0.0789213 -0.680051,0.0836063 -0.287626,0.00530709 -0.383248,-0.00212598 -0.625815,0.283575 -0.344354,0.405594 0.0982913,1.62323 0.644087,1.66109 0.136358,0.00945669 0.304961,-0.0923583 0.442992,-0.0707992 0.0828228,0.012937 0.131866,0.109512 0.21339,0.108913 0.246937,-0.00182677 0.409189,-0.108921 0.44726,-0.375303 0.299717,1.17118 -0.22263,1.28475 -0.397039,2.50685 -0.00262992,0.0184291 -0.0771693,0.491114 -0.0902323,0.504173 -0.972504,-0.643374 -1.65317,-0.707752 -2.70102,-0.0971693 -0.21948,-0.129398 -1.46224,-0.202807 -1.48945,0.0571929 -0.189449,1.81035 -0.0636496,0.958433 -0.0636496,2.76394 0.185173,0.185091 0.59163,0.37824 0.655799,0.249945 0.0041378,-0.560295 0.0751339,-1.20974 1.76506,-1.03303 0.563075,0.0588819 1.12877,-0.331083 2.12361,-0.24989 0.429098,0.0350157 1.39175,0.161909 1.97014,-0.13398 0.44385,-0.227059 0.315291,-0.690681 0.226083,-1.16013 -0.0699291,-0.367992 -0.144677,-0.813071 -0.218165,-1.18041 -0.221469,-1.107 -0.240366,-1.63303 -1.10918,-3.37011 -0.235598,-0.471043 -0.624492,-0.602823 -1.11381,-0.548472z"/>
 </g>
</svg>
