<?xml version="1.0" encoding="UTF-8" standalone="no"?>
<!-- Created with Inkscape (http://www.inkscape.org/) -->

<svg
   xmlns:dc="http://purl.org/dc/elements/1.1/"
   xmlns:cc="http://creativecommons.org/ns#"
   xmlns:rdf="http://www.w3.org/1999/02/22-rdf-syntax-ns#"
   xmlns:svg="http://www.w3.org/2000/svg"
   xmlns="http://www.w3.org/2000/svg"
   xmlns:sodipodi="http://sodipodi.sourceforge.net/DTD/sodipodi-0.dtd"
   xmlns:inkscape="http://www.inkscape.org/namespaces/inkscape"
   width="96.09861mm"
   height="93.177727mm"
   viewBox="0 0 340.50689 330.1573"
   id="svg16817"
   version="1.1"
   inkscape:version="0.91 r13725"
   sodipodi:docname="strongman.svg">
  <defs
     id="defs16819" />
  <sodipodi:namedview
     id="base"
     pagecolor="#ffffff"
     bordercolor="#666666"
     borderopacity="1.0"
     inkscape:pageopacity="0.0"
     inkscape:pageshadow="2"
     inkscape:zoom="0.68534965"
     inkscape:cx="250.55755"
     inkscape:cy="102.92249"
     inkscape:document-units="px"
     inkscape:current-layer="layer1"
     showgrid="false"
     fit-margin-top="0"
     fit-margin-left="0"
     fit-margin-right="0"
     fit-margin-bottom="0"
     inkscape:window-width="1366"
     inkscape:window-height="705"
     inkscape:window-x="-8"
     inkscape:window-y="-8"
     inkscape:window-maximized="1" />
  <metadata
     id="metadata16822">
    <rdf:RDF>
      <cc:Work
         rdf:about="">
        <dc:format>image/svg+xml</dc:format>
        <dc:type
           rdf:resource="http://purl.org/dc/dcmitype/StillImage" />
        <dc:title></dc:title>
      </cc:Work>
    </rdf:RDF>
  </metadata>
  <g
     inkscape:label="Layer 1"
     inkscape:groupmode="layer"
     id="layer1"
     transform="translate(-1355.585,-318.03081)">
    <path
       style="fill:#000000"
       d="m 1591.9327,318.03244 c -6.499,0.0424 -13.0242,0.86635 -17.5567,2.53125 -3.4612,1.2714 -7.9334,3.58418 -9.9375,5.13868 -2.0042,1.5545 -4.1169,2.82617 -4.6972,2.82617 -2.0603,0 -6.1256,6.704 -12.127,20 -0.6206,1.375 -1.7752,3.67231 -2.5644,5.10351 -0.7891,1.4311 -1.6104,5.0311 -1.8262,8 -0.2159,2.9688 -1.8355,9.64444 -3.5996,14.83594 -3.9991,11.7681 -3.8742,14.30685 1.6816,34.06055 2.1058,7.4873 2.9634,22.2456 2.2364,38.5 -0.074,1.65 0.8223,6.825 1.9922,11.5 l 2.1269,8.5 -3.0547,2.75 c -4.0573,3.6527 -8.2573,3.57081 -13.9277,-0.27149 -6.0406,-4.0931 -11.1954,-5.42456 -20.5957,-5.32226 -5.8992,0.0643 -10.1008,0.79953 -16,2.80273 -4.4,1.4941 -11.5547,3.58729 -15.9004,4.65039 -4.3456,1.0632 -9.5206,2.78944 -11.5,3.83594 -1.9793,1.0464 -5.8496,2.1278 -8.5996,2.4043 -2.75,0.2765 -6.2851,0.99405 -7.8574,1.59375 -2.3774,0.9067 -2.6528,1.34052 -1.629,2.57422 0.6779,0.8159 2.0768,1.48242 3.1094,1.48242 1.0327,0 1.877,0.26012 1.877,0.57812 0,0.6917 -9.2897,11.50948 -13.4336,15.64258 -2.7236,2.7166 -14.4284,8.78125 -16.9551,8.78125 -0.6114,7e-4 -2.3511,1.06709 -3.8672,2.3711 -3.9101,3.36279 -1.7166,5.08565 5.2539,4.12695 6.9961,-0.9622 10.002,1.00351 10.002,6.53711 0,2.1948 0.4226,4.77146 0.9394,5.72656 0.5168,0.955 1.188,2.92184 1.4903,4.36914 0.3926,1.8796 1.3368,2.78005 3.3047,3.15625 1.5152,0.2901 3.0941,0.3174 3.5097,0.0606 1.4802,-0.9148 0.7234,-4.5541 -1.2871,-6.1875 -2.3063,-1.8739 -3.0661,-6.54595 -1.6113,-9.90625 0.7357,-1.6992 0.5673,-2.69348 -0.6875,-4.08008 -2.0587,-2.2747 -2.1111,-3.78771 -0.1582,-4.53711 2.3416,-0.8986 4.436,0.33608 6.1308,3.61328 l 1.5547,3.00781 2.0078,-2.00781 c 1.627,-1.627 1.7999,-2.3963 0.9082,-4.0625 -0.6052,-1.1309 -1.1015,-2.70876 -1.1015,-3.50586 0,-1.6908 4.9831,-2.97182 5.0371,-1.29492 0.02,0.6112 1.1169,-0.21208 2.4394,-1.83008 1.3224,-1.618 2.2098,-3.25763 1.9707,-3.64453 -0.2391,-0.3869 0.2123,-0.95206 1.004,-1.25586 0.7907,-0.3037 1.7322,-2.11931 2.0917,-4.03515 0.4438,-2.36573 1.09,-3.3166 2.0118,-2.9629 0.7464,0.2865 2.5109,-0.63402 3.9218,-2.04492 l 2.5645,-2.56445 2.4805,2.1543 c 1.3635,1.1856 2.4785,3.1001 2.4785,4.2539 0,3.1004 -6.7819,16.70084 -9.1582,18.36524 -1.1286,0.7905 -2.6867,2.95354 -3.461,4.80664 -1.0633,2.545 -2.0163,3.36914 -3.8945,3.36914 -2.4266,0 -2.4863,0.17985 -2.4863,7.47265 l 0,7.47266 5.25,1.48828 c 2.8875,0.8184 9.2052,1.67389 14.039,1.90039 4.8339,0.2266 9.0708,0.69373 9.4161,1.03907 0.7795,0.77958 2.2451,0.70326 4.6425,-0.24024 1.6523,-0.6502 1.6824,-0.86242 0.293,-2.01562 -0.8543,-0.7094 -1.9889,-1.0178 -2.5234,-0.6875 -0.5345,0.3304 -1.2369,-0.23391 -1.5606,-1.25391 -0.3237,-1.0199 -1.6836,-2.44015 -3.0215,-3.15625 -1.6873,-0.903 -2.7189,-2.64128 -3.3652,-5.67188 -0.7906,-3.7068 -0.5151,-5.57581 1.8203,-12.32031 1.5141,-4.3727 2.5499,-8.15334 2.3008,-8.40234 -0.249,-0.2491 0.1181,-1.50436 0.8164,-2.78906 0.6983,-1.2846 1.3284,-3.0415 1.4004,-3.9043 0.072,-0.8629 1.5633,-2.93572 3.3125,-4.60742 1.7493,-1.6717 3.1797,-3.50312 3.1797,-4.07032 0,-0.5673 1.5143,-2.73264 3.3633,-4.81054 3.8135,-4.2855 3.3499,-4.17988 23.7968,-5.36328 8.0627,-0.4667 15.1316,-1.14115 15.709,-1.49805 0.5774,-0.3568 1.982,-0.0713 3.1211,0.63476 1.7282,1.07133 2.2321,1.03481 3.041,-0.21679 0.8022,-1.2412 1.1196,-1.26619 1.8418,-0.14649 0.6807,1.0554 1.3411,1.10265 3,0.21485 1.17,-0.6262 2.127,-1.72687 2.127,-2.44727 0,-0.7204 0.9421,-2.16077 2.0918,-3.20117 1.9563,-1.7704 2.1693,-1.78421 3.334,-0.19141 0.9037,1.2358 1.5445,1.40277 2.3418,0.60547 1.8421,-1.8421 4.5482,-0.12901 3.8378,2.42969 -1.8864,6.7949 -1.9532,6.46506 1.3204,6.34766 1.73,-0.0621 3.0722,-0.65713 3.0722,-1.36133 0,-0.6875 0.9384,-1.25 2.0821,-1.25 1.7769,0 1.9867,-0.42402 1.4394,-2.91602 -0.4394,-2.0008 -0.1975,-3.1778 0.7734,-3.75 0.7783,-0.4586 2.0051,-1.95898 2.7247,-3.33398 0.7195,-1.375 2.779,-4.075 4.5781,-6 5.7697,-6.1737 9.3727,-10.47876 9.3887,-11.22266 0.01,-0.3984 1.274,-1.37532 2.8105,-2.16992 1.5365,-0.7946 5.024,-3.50189 7.75,-6.01563 2.726,-2.51368 5.4921,-4.57007 6.1484,-4.58007 0.6563,-0.006 1.8577,-0.95954 2.67,-2.11914 0.8122,-1.1596 1.9318,-1.82623 2.4882,-1.48243 0.5563,0.3438 1.6049,-0.19496 2.3301,-1.19726 0.7251,-1.0022 2.2184,-1.87069 3.3184,-1.92969 4.4168,-0.2372 7.6383,-1.01919 8.7402,-2.12109 0.6386,-0.6386 1.7721,-1.16211 2.5195,-1.16211 0.751,0 1.0802,-0.45 0.7403,-1 -0.9012,-1.4582 2.0805,-1.2267 3.2207,0.25 1.0116,1.3103 1.0327,5.197 0.041,7.75 -1.7648,4.543 -1.5774,6.00956 0.832,6.50586 1.3241,0.2727 3.6438,0.7524 5.1563,1.0664 2.2164,0.46 2.5075,0.32303 1.5,-0.70117 -0.6875,-0.699 -1.25,-3.14479 -1.25,-5.43554 0,-2.68192 -0.7278,-5.09123 -2.0449,-6.76563 -1.9182,-2.4386 -1.9441,-2.75507 -0.4258,-5.07227 0.8905,-1.3591 1.5175,-3.2859 1.3945,-4.2832 -0.4275,-3.4661 2.359,-10.96028 4.4238,-11.89648 1.1125,-0.5044 2.1822,-1.41976 2.377,-2.03516 0.4302,-1.3583 -4.5771,-0.62706 -6.5781,0.96094 -1.4271,1.1326 -3.583,5.63165 -3.3086,6.90625 0.089,0.4125 -0.4464,0.75 -1.1895,0.75 -0.743,0 -3.4759,1.13207 -6.0742,2.51367 -5.4966,2.9225 -10.3619,4.29436 -20.0742,5.66406 -10.939,1.5427 -15.8335,1.61402 -18,0.26172 -1.1,-0.6866 -4.25,-1.55213 -7,-1.92383 -3.7729,-0.51 -6.0567,-1.59512 -9.3047,-4.41992 l -4.3047,-3.74219 1.6856,-2.93554 c 0.9257,-1.6141 2.6871,-3.69179 3.914,-4.61719 2.0451,-1.5427 2.7115,-1.55748 8.0176,-0.17188 4.7627,1.2437 5.9364,1.27751 6.625,0.19141 1.7457,-2.7531 1.5615,-2.90299 -5.8828,-4.80859 -2.3375,-0.5983 -4.25,-1.45093 -4.25,-1.89453 0,-1.1393 11.6601,-0.57285 16.7734,0.81445 4.2941,1.1651 6.7539,0.7318 5.6836,-1 -0.3164,-0.512 -1.4481,-0.93164 -2.5156,-0.93164 -1.0676,0 -1.9414,-0.39366 -1.9414,-0.87695 0,-1.06071 -4.215,-2.76377 -9,-3.63477 -1.925,-0.3505 -4.9836,-1.30876 -6.7969,-2.13086 l -3.2969,-1.49414 2.2969,-1.68164 c 4.8008,-3.5131 8.7284,-5.18164 12.2012,-5.18164 4.1473,0 4.8391,-2.01397 1.4961,-4.35547 -1.6254,-1.1384 -2.7727,-1.23619 -5.086,-0.42969 -3.5447,1.2356 -5.3407,-0.0781 -6.7304,-4.92383 -0.6584,-2.2955 -0.5047,-3.67141 0.5859,-5.22851 1.9229,-2.7452 2.9816,-12.54208 1.457,-13.48438 -0.6192,-0.3826 -1.1269,-1.49817 -1.1269,-2.48047 0,-3.5612 -3.6087,-5.46596 -10.0254,-5.28906 -4.1141,0.1133 -6.0109,-0.21891 -6.0899,-1.07031 -0.2321,-2.4921 0.3354,-5.26841 1.3243,-6.47461 0.5578,-0.6805 0.7598,-1.90435 0.4472,-2.71875 -0.3125,-0.8144 -0.1814,-1.72047 0.293,-2.01367 1.1266,-0.6962 0.075,-4.6447 -1.7148,-6.4375 -1.206,-1.2079 -0.7917,-1.68852 2.9316,-3.41602 2.3842,-1.1062 5.7965,-1.922 7.584,-1.8125 2.3877,0.1462 3.25,-0.22418 3.25,-1.39258 0,-0.8747 0.4724,-1.2976 1.0488,-0.9414 0.5763,0.3558 1.8138,0.33182 2.75,-0.0527 0.9361,-0.3846 5.9762,-0.80926 11.2012,-0.94336 7.3877,-0.1897 10.3894,0.15609 13.5,1.55469 2.2,0.9892 5.169,2.04074 6.5976,2.33594 3.3277,0.6878 12.7103,7.53392 13.4629,9.82422 0.3163,0.9625 1.2199,1.75 2.0078,1.75 0.7879,0 1.4317,0.63877 1.4317,1.41797 0,0.7791 0.3548,1.5666 0.7871,1.75 0.4324,0.1833 1.8408,1.83527 3.1308,3.67187 2.1442,3.0526 2.2405,3.68713 1.1309,7.39063 -0.8511,2.8407 -0.8947,4.24843 -0.1465,4.71093 1.1896,0.7352 1.2871,3.79321 0.4961,15.62891 -0.6549,9.8001 0.4538,11.55393 5.4981,8.70313 3.6213,-2.0467 5.3623,-6.76365 5.582,-15.12305 0.1622,-6.1711 -2.0256,-17.89613 -3.7813,-20.26953 -11.2761,-15.2431 -17.4149,-21.04335 -25.6972,-24.28125 -0.825,-0.3225 -2.175,-0.9958 -3,-1.4961 -3.9817,-2.4147 -12.2946,-3.65408 -20.6504,-3.59961 z m 6.539,34.55274 c -2.3085,0.0278 -4.0402,0.42353 -4.705,1.22461 -1.348,1.6242 -1.2085,7.4645 0.2422,10.1582 3.5667,6.6227 4.5476,7.42941 7.8769,6.47461 1.7518,-0.5024 3.2863,-0.91406 3.4102,-0.91406 0.1239,0 -0.054,0.72638 -0.3946,1.61328 -0.638,1.6627 -0.4053,1.66344 11.6817,0.0469 3.3886,-0.4532 3.1997,-3.07966 -0.25,-3.47656 -1.5125,-0.1741 -2.75,-0.78432 -2.75,-1.35742 0,-0.6026 -1.018,-0.78645 -2.416,-0.43555 -1.9603,0.492 -2.9735,-0.10092 -5.3555,-3.14062 -2.6505,-3.3822 -3.4054,-7.09463 -1.1602,-5.70703 1.6167,0.9992 15.9317,3.18754 15.9317,2.43554 0,-1.1652 -2.8725,-3.23494 -4.7676,-3.43554 -0.9526,-0.1008 -2.4074,-0.43725 -3.2324,-0.74805 -4.8076,-1.81112 -10.2626,-2.78467 -14.1114,-2.73828 z m -28.0957,13.98047 c 0.1365,0.0138 0.1638,0.42544 0.1778,1.24804 0.017,0.9818 -0.697,2.89711 -1.586,4.25391 -0.889,1.3568 -1.752,4.47855 -1.9179,6.93945 -0.1946,2.886 -1.3198,5.99029 -3.168,8.74219 -1.5759,2.3465 -3.5666,4.40131 -4.4238,4.56641 -1.7766,0.3421 -4.3248,-2.33177 -4.4766,-4.69727 -0.056,-0.8736 -0.169,-2.63165 -0.25,-3.90625 -0.1221,-1.9103 -0.5436,-2.2022 -2.3984,-1.6582 l -2.25,0.66016 2.25,-1.64844 c 1.2375,-0.9071 2.25,-2.13672 2.25,-2.73242 0,-1.4965 2.5846,-3.38527 8.7383,-6.38477 2.8807,-1.4042 5.6786,-3.31053 6.2187,-4.23633 0.4525,-0.7756 0.6995,-1.16023 0.8359,-1.14648 z m 19.7911,115.67187 c -0.1771,-0.006 -0.3549,-0.005 -0.5313,0.006 -0.8468,0.0511 -1.6493,0.30016 -2.0469,0.7793 -0.5871,0.7074 -1.7351,5.42166 -2.5527,10.47656 -1.2521,7.7418 -2.114,10.11453 -5.4648,15.04883 -2.1879,3.2218 -4.4299,6.13689 -4.9825,6.47852 -0.5527,0.34158 -1.0058,1.04498 -1.0058,1.5625 0,1.54268 3.6502,1.06583 5.0859,-0.66407 1.174,-1.4146 4.4402,-3.10719 7.4141,-3.84179 2.7895,-0.6892 6.2279,-2.52002 7.414,-3.94922 0.7323,-0.8823 2.0639,-1.62066 2.959,-1.63868 4.4065,-0.09 9.2208,-8.94853 5.6153,-10.33203 -0.8882,-0.3409 -1.3274,-1.08474 -0.9766,-1.65234 0.3508,-0.5675 -1.4216,-3.12 -3.9375,-5.67187 -2.5159,-2.55201 -4.5742,-4.96223 -4.5742,-5.35743 0,-0.75206 -1.1766,-1.20061 -2.416,-1.24414 z m -46.4746,11.42578 c -0.9672,0.0418 -2.446,0.77471 -3.5215,1.78516 -1.2292,1.1548 -2.5301,1.80386 -2.8907,1.44336 -1.023,-1.023 -8.4626,4.32221 -9.1855,6.59961 -0.3558,1.1212 -1.0652,2.03906 -1.5781,2.03906 -0.5129,0 -0.9336,0.70441 -0.9336,1.56641 0,0.8621 -2.025,4.05349 -4.5,7.09179 -2.475,3.0383 -4.5,6.07731 -4.5,6.75391 0,0.6766 -1.338,2.9977 -2.9727,5.1582 -1.6347,2.1604 -2.985,4.39289 -3,4.95899 -0.045,1.6796 -6.9062,8.24965 -10.084,9.65625 -1.6186,0.7165 -2.9434,1.53039 -2.9433,1.80859 10e-5,0.2783 2.3603,0.64691 5.2441,0.82031 2.8837,0.1733 5.9581,0.96136 6.8321,1.75196 0.873,0.7906 2.6758,1.35616 4.0058,1.25586 1.3301,-0.1003 4.0985,0.38171 6.1524,1.07031 2.0539,0.6889 4.6057,0.97452 5.6699,0.63672 1.4124,-0.4483 2.12,-0.0301 2.6211,1.54883 0.9478,2.9863 -2.5673,6.16253 -9.709,8.76953 -5.2437,1.9141 -6.1744,1.97074 -12,0.74218 -3.4735,-0.73248 -8.1066,-2.08505 -10.2949,-3.00585 -2.6096,-1.0981 -6.3947,-1.6243 -11,-1.5293 -3.8617,0.0795 -9.9465,-0.37582 -13.5215,-1.01172 -3.575,-0.6358 -9.0756,-1.32114 -12.2227,-1.52344 -3.1472,-0.2022 -6.2599,-0.70072 -6.9179,-1.10742 -0.658,-0.4067 -3.4811,-0.92268 -6.2735,-1.14648 -2.7923,-0.2239 -6.4295,-1.21814 -8.082,-2.21094 -1.6525,-0.9927 -3.5974,-1.58952 -4.3242,-1.32422 -0.7268,0.2652 -2.3828,-0.51192 -3.6778,-1.72852 -1.2949,-1.2166 -2.8559,-1.90148 -3.4707,-1.52148 -0.6148,0.38 -1.716,0.19479 -2.4472,-0.41211 -0.7312,-0.6068 -2.0592,-0.82402 -2.9493,-0.48242 -0.978,0.3753 -1.8512,0.0103 -2.2089,-0.92188 -0.3256,-0.8485 -2.0183,-1.8348 -3.7598,-2.1914 -8.2709,-1.6935 -16.211,-7.67208 -16.4453,-12.38282 -0.3749,-7.5347 -10.5277,-4.46926 -23.0391,6.95704 -7.88,7.1967 -14.8667,19.95312 -10.9316,19.95312 0.6875,8e-4 -0.274,0.7883 -2.1367,1.75 -4.076,2.1042 -7.1114,9.17094 -7.1114,16.55664 0,6.8271 1.8523,8.37709 23.3321,19.52149 2.8473,1.4773 6.6474,3.73347 8.4453,5.01367 4.0078,2.8539 16.7656,5.31972 27.2207,5.26172 7.6,-0.0425 8.9956,0.26011 21.5,4.66601 8.254,2.9082 11.5096,4.28443 13.3515,5.64453 0.743,0.5486 1.868,1.11166 2.5,1.25196 9.8782,2.1928 18.5338,5.67144 22.8614,9.18554 0.942,0.765 2.4045,1.12522 3.25,0.80078 0.8454,-0.32447 1.5371,-0.15389 1.5371,0.37891 0,0.5327 0.4829,0.96875 1.0722,0.96875 0.5893,0 1.7454,0.675 2.5704,1.5 0.825,0.825 2.4814,1.50949 3.6796,1.52149 1.1982,0.012 4.1361,0.91009 6.5293,1.99609 2.3931,1.086 4.7155,1.74941 5.1602,1.47461 1.3171,-0.814 3.9883,0.60825 3.9883,2.12305 0,1.1146 -1.1779,1.26872 -5.75,0.75586 -3.1625,-0.3547 -6.2,-0.9719 -6.75,-1.3711 -0.55,-0.3992 -5.725,-2.2269 -11.5,-4.0625 -5.775,-1.8355 -10.6488,-3.69837 -10.8321,-4.13867 -0.1834,-0.4403 -0.7681,-0.79883 -1.2988,-0.79883 -0.5308,0 -2.8288,-0.9 -5.1055,-2 -2.2762,-1.1 -4.7294,-2 -5.4511,-2 -1.8155,0 -1.6567,3.92902 0.1875,4.63672 0.8708,0.3341 1.5,1.83136 1.5,3.56836 0,1.6455 0.6354,4.40938 1.4121,6.14258 0.7767,1.7331 1.6945,4.824 2.0391,6.86718 0.3442,2.04323 1.0382,3.9686 1.541,4.2793 1.8384,1.1363 15.3296,1.7109 41.1191,1.75196 14.5144,0.0229 27.2887,-0.0186 28.3887,-0.0938 3.3037,-0.2246 15.7548,0.76853 16.2851,1.29883 0.2714,0.2717 0.8469,0.27554 1.2774,0.01 0.4305,-0.2661 6.9576,-0.67109 14.5058,-0.90039 9.3083,-0.2827 13.9663,-0.80897 14.4766,-1.63477 0.4848,-0.7844 1.8937,-0.98957 3.9609,-0.57617 2.9263,0.5853 3.7794,0.0933 9.6914,-5.60351 16.0743,-15.4893 22.7674,-22.29903 22.5586,-22.95313 -0.1239,-0.3884 1.7928,-2.75346 4.2598,-5.25586 2.4669,-2.5023 4.4844,-4.99306 4.4844,-5.53516 0,-0.5422 0.9,-1.54737 2,-2.23437 1.1,-0.6869 2,-1.80121 2,-2.47461 0,-0.6733 0.9552,-1.73342 2.1211,-2.35742 3.1872,-1.7058 10.8169,-10.12365 11.498,-12.68555 0.329,-1.2375 1.1751,-2.25 1.8809,-2.25 0.7058,0 1.5932,-1.2375 1.9707,-2.75 0.8062,-3.2304 3.2946,-6.25 5.1504,-6.25 0.7204,0 1.8171,-0.95243 2.4394,-2.11523 0.6222,-1.1627 3.1132,-4.15243 5.5352,-6.64453 2.4221,-2.4921 4.4043,-4.84291 4.4043,-5.22461 0,-0.3817 1.7946,-1.55447 3.9883,-2.60547 2.1937,-1.051 3.99,-2.24766 4,-2.66016 0.01,-0.4125 0.7992,-0.75394 1.7617,-0.7539 2.2721,-0.003 7.1116,-4.40314 10.6191,-9.65626 1.5278,-2.288 3.8407,-4.4281 5.1387,-4.7539 3.6238,-0.9095 6.126,-5.37236 7.4512,-13.28906 1.3921,-8.3155 0.069,-14.29688 -3.1602,-14.29688 -1.4581,0 -1.7988,0.82895 -1.7988,4.37695 0,2.702 -0.5827,4.86178 -1.5235,5.64258 -0.8383,0.6957 -1.3074,1.4836 -1.041,1.75 0.2663,0.2663 -0.1483,1.70713 -0.9219,3.20313 -0.773,1.496 -1.1888,3.57624 -0.9238,4.62304 0.335,1.3232 -0.4461,2.5138 -2.5605,3.9043 -1.6727,1.1 -3.2927,2.7875 -3.6016,3.75 -0.3089,0.9625 -1.0937,1.75095 -1.7441,1.75195 -2.2316,0.003 -32.6836,30.58808 -32.6836,32.82618 0,1.256 -0.5052,1.93001 -1.25,1.66601 -0.6875,-0.2437 -3.9224,2.05061 -7.1895,5.09961 -3.267,3.0491 -7.992,6.72552 -10.5,8.16992 -2.5079,1.4444 -6.3287,4.11414 -8.4902,5.93164 -2.1615,1.8175 -4.2785,3.30469 -4.7051,3.30469 -0.4266,0 -2.4765,1.15415 -4.5547,2.56445 -2.0782,1.4103 -5.3409,3.30494 -7.25,4.21094 -1.9092,0.9059 -6.416,4.3785 -10.0156,7.7168 -8.0558,7.471 -14.2026,11.50781 -17.5234,11.50781 -3.1296,0 -3.4066,-2.79913 -0.5215,-5.26953 1.7634,-1.5098 2.1799,-2.68557 1.9355,-5.48047 -0.092,-1.0548 -3.2992,-0.26885 -4.0879,1.00195 -0.3592,0.5788 -3.4109,1.42973 -6.7812,1.89063 -3.3702,0.461 -7.5302,1.56282 -9.2442,2.44922 -4.4985,2.3262 -12.729,2.25615 -14.4687,-0.12305 -1.4896,-2.0371 -0.8697,-5.36534 1.2969,-6.96484 2.0116,-1.485 -3.5354,-11.67377 -7.0489,-12.94727 -1.4521,-0.5264 -2.6015,-1.71656 -2.6015,-2.69336 0,-0.9627 -0.8176,-2.33794 -1.8164,-3.05664 -2.7494,-1.9785 -3.4811,-4.78027 -1.416,-5.41797 0.9532,-0.2943 2.4532,-0.9155 3.3339,-1.3789 1.1174,-0.588 2.3891,-0.11148 4.2071,1.57422 1.4328,1.3286 3.2082,2.41601 3.9472,2.41601 0.739,0 1.8831,0.53731 2.5411,1.19531 0.9283,0.9283 1.5256,0.7603 2.6679,-0.75 1.58,-2.0893 1.9604,-4.68792 0.8496,-5.79882 -0.377,-0.3769 -1.2586,-2.35544 -1.9609,-4.39844 -1.0963,-3.1888 -1.0487,-4.07162 0.3418,-6.23242 0.8909,-1.3843 2.2063,-2.86597 2.9219,-3.29297 1.677,-1.0009 0.6395,-3.70918 -2.3145,-6.04688 -3.0696,-2.4291 -2.9025,-4.46258 0.668,-8.14648 1.6339,-1.6858 3.121,-4.04854 3.3047,-5.25196 0.1836,-1.20339 1.0658,-2.99737 1.959,-3.98437 0.8933,-0.987 1.7094,-2.24297 1.8144,-2.79297 0.6092,-3.1885 2.0652,-5.29669 4.0078,-5.80469 1.6643,-0.4352 2.0721,-1.09976 1.6543,-2.69726 -0.3456,-1.3217 -0.019,-2.32572 0.8672,-2.66602 0.7823,-0.3002 1.4219,-1.12473 1.4219,-1.83203 0,-0.7073 0.6331,-1.52957 1.4062,-1.82617 0.7731,-0.2967 1.7291,-2.03282 2.125,-3.85742 0.396,-1.8247 1.2254,-3.64864 1.8438,-4.05274 0.6676,-0.4362 0.2612,-0.74 -1.002,-0.75 -1.1701,-0.008 -2.6883,0.66133 -3.373,1.48633 -0.6847,0.825 -1.7634,1.5 -2.3985,1.5 -1.4081,0 -6.0526,4.34839 -10.1015,9.45899 -7.5005,9.4674 -8.8366,9.94619 -16.9922,6.08789 -6.6141,-3.1289 -7.7065,-4.51818 -7.6875,-9.76758 0.025,-7.0399 0.2021,-7.65225 2.8242,-9.71485 1.6259,-1.2789 2.3263,-2.61563 1.9785,-3.77343 -0.6395,-2.1293 2.5277,-6.29102 4.7871,-6.29102 1.029,0 1.5899,-0.8817 1.5899,-2.5 0,-1.375 0.4639,-2.5 1.0312,-2.5 0.5672,0 1.3287,-0.7875 1.6914,-1.75 0.3628,-0.9625 1.959,-3.55 3.5469,-5.75 2.4507,-3.3955 2.634,-4.0528 1.2188,-4.3418 -0.1147,-0.0234 -0.2408,-0.0314 -0.3789,-0.0254 z m 146.664,66.95899 c -0.6635,0.0543 -0.6995,0.56276 -0.3047,1.80664 0.3636,1.1457 0.3075,2.6493 -0.125,3.3418 -0.4326,0.6924 -0.8697,1.79326 -0.9687,2.44726 -0.2445,1.6088 -5.412,8.31055 -6.4082,8.31055 -0.6833,0 -2.4677,2.11251 -10.2227,12.10351 -0.6844,0.8817 -3.1566,2.80098 -5.4941,4.26368 -2.3375,1.4627 -4.2861,3.21588 -4.3301,3.89648 -0.8809,13.5922 -2.7045,21.52804 -6.5117,28.33594 -3.2411,5.7957 -4.2312,6.73839 -10.0098,9.52539 -6.7481,3.2545 -7.9084,4.2408 -6.8984,5.875 0.3399,0.55 3.5565,1 7.1484,1 5.5498,0 6.8132,-0.338 8.4082,-2.25 1.0324,-1.2375 1.8922,-2.94774 1.9102,-3.80274 0.018,-0.855 1.5718,-3.23516 3.4531,-5.28906 1.8813,-2.0539 4.4319,-6.30421 5.668,-9.44531 1.2361,-3.1411 3.5244,-6.94467 5.084,-8.45117 1.5596,-1.5066 2.7239,-3.0816 2.5878,-3.5 -0.3958,-1.2174 4.1374,-8.00746 5.7618,-8.63086 0.8139,-0.3123 1.4785,-1.41136 1.4785,-2.44336 0,-1.032 0.9,-2.692 2,-3.6875 1.1,-0.9955 2,-2.26336 2,-2.81836 0,-2.2543 3.4748,-8.68164 4.6933,-8.68164 0.7192,0 1.3067,-0.92835 1.3067,-2.06445 0,-1.13622 0.5039,-3.00672 1.1191,-4.15626 0.6152,-1.14958 1.178,-5.0469 1.25,-8.6621 0.113,-5.653 -0.1267,-6.6253 -1.7148,-6.9375 -0.3676,-0.0723 -0.6597,-0.1041 -0.8809,-0.0859 z"
       id="path17068"
       inkscape:connector-curvature="0" />
  </g>
</svg>
